<svg width="128" height="128" viewBox="0 0 128 128" fill="none" xmlns="http://www.w3.org/2000/svg">
  <defs>
    <linearGradient id="grad" x1="0%" y1="0%" x2="100%" y2="100%">
      <stop offset="0%" style="stop-color:#667eea;stop-opacity:1" />
      <stop offset="100%" style="stop-color:#764ba2;stop-opacity:1" />
    </linearGradient>
  </defs>
  <rect width="128" height="128" rx="24" fill="url(#grad)"/>
  <path d="M64 32C46.3269 32 32 46.3269 32 64C32 81.6731 46.3269 96 64 96C81.6731 96 96 81.6731 96 64C96 46.3269 81.6731 32 64 32ZM64 88C50.7452 88 40 77.2548 40 64C40 50.7452 50.7452 40 64 40C77.2548 40 88 50.7452 88 64C88 77.2548 77.2548 88 64 88Z" fill="white"/>
  <path d="M64 52C59.5817 52 56 55.5817 56 60C56 64.4183 59.5817 68 64 68C68.4183 68 72 64.4183 72 60C72 55.5817 68.4183 52 64 52Z" fill="white"/>
  <path d="M64 72C61.7909 72 60 73.7909 60 76C60 78.2091 61.7909 80 64 80C66.2091 80 68 78.2091 68 76C68 73.7909 66.2091 72 64 72Z" fill="white"/>
</svg>
